<svg xmlns="http://www.w3.org/2000/svg" xmlns:xlink="http://www.w3.org/1999/xlink" width="500" zoomAndPan="magnify" viewBox="0 0 375 374.999991" height="500" preserveAspectRatio="xMidYMid meet" version="1.0"><defs><g/><clipPath id="9324ee7127"><path d="M 0 24.296875 L 375 24.296875 L 375 350.546875 L 0 350.546875 Z M 0 24.296875 " clip-rule="nonzero"/></clipPath></defs><g clip-path="url(#9324ee7127)"><path fill="#1e90ff" d="M 155.679688 345.453125 C 147.3125 344.128906 138.726562 342.808594 131.019531 339.070312 C 116.707031 332.464844 101.953125 328.285156 87.199219 323.660156 C 77.949219 320.800781 69.144531 316.179688 60.554688 311.117188 C 50.644531 305.394531 43.378906 296.371094 36.113281 287.347656 C 31.929688 282.285156 28.40625 276.339844 25.542969 270.179688 C 23.339844 265.335938 21.359375 260.933594 17.835938 257.414062 C 10.789062 250.148438 6.828125 240.90625 3.304688 231.222656 C 0.660156 223.519531 0 215.59375 1.761719 207.449219 C 4.183594 196.886719 6.164062 186.101562 9.027344 175.535156 C 12.992188 160.789062 15.632812 145.601562 21.800781 131.738281 C 23.78125 127.335938 24.882812 122.492188 25.542969 117.652344 C 27.964844 102.683594 34.132812 90.359375 42.9375 79.132812 C 53.289062 65.929688 66.5 58.003906 80.371094 50.742188 C 99.96875 40.398438 120.449219 33.132812 142.027344 29.613281 C 155.019531 27.632812 167.792969 24.992188 180.785156 24.769531 C 197.300781 24.550781 213.59375 26.53125 229.667969 31.59375 C 251.246094 38.417969 273.046875 45.019531 293.085938 56.683594 C 308.941406 65.707031 323.472656 76.714844 334.703125 93 C 339.109375 99.382812 344.171875 104.886719 349.238281 110.828125 C 363.109375 127.554688 373.238281 146.484375 374.339844 170.253906 C 374.78125 179.71875 375 188.960938 375 198.425781 C 375 203.046875 374.78125 207.890625 373.679688 212.292969 C 369.054688 230.121094 363.988281 247.726562 358.925781 265.335938 C 356.0625 275.242188 352.539062 284.925781 345.933594 291.746094 C 336.683594 300.992188 326.335938 309.136719 316.207031 316.839844 C 304.316406 325.863281 290.664062 330.703125 277.671875 337.085938 C 261.378906 345.011719 243.980469 348.753906 226.367188 349.851562 C 215.796875 350.292969 205.445312 349.851562 190.03125 349.851562 C 181.664062 348.753906 168.671875 347.652344 155.679688 345.453125 Z M 121.550781 101.585938 C 103.714844 108.847656 86.097656 117.429688 70.683594 130.417969 C 60.113281 139.660156 51.304688 151.765625 43.597656 164.53125 C 36.554688 175.976562 36.332031 175.976562 43.378906 187.421875 C 50.425781 198.648438 57.25 210.3125 65.179688 220.65625 C 87.199219 249.710938 114.945312 268.859375 147.3125 279.203125 C 164.710938 284.925781 182.546875 288.886719 200.382812 290.648438 C 214.695312 292.1875 229.226562 292.847656 243.539062 291.085938 C 251.6875 289.988281 259.175781 286.464844 265.78125 281.402344 C 284.277344 266.875 301.671875 250.589844 313.34375 228.140625 C 319.730469 215.8125 324.574219 202.386719 330.078125 189.621094 C 332.0625 185.222656 331.621094 180.820312 329.640625 176.855469 C 320.609375 158.148438 309.378906 141.421875 295.949219 126.675781 C 287.800781 117.871094 278.332031 111.929688 267.324219 108.847656 C 256.3125 105.765625 245.523438 101.144531 234.292969 98.722656 C 215.574219 94.539062 196.859375 91.460938 177.039062 92.121094 C 158.542969 91.460938 139.605469 94.101562 121.550781 101.585938 Z M 205.007812 302.09375 C 176.378906 300.773438 149.074219 291.308594 122.429688 280.523438 C 112.742188 276.5625 103.714844 269.519531 95.125 262.695312 C 73.988281 246.40625 57.25 225.058594 43.378906 200.847656 C 42.058594 198.648438 40.296875 196.445312 37.875 192.925781 C 37.433594 196.445312 36.773438 197.988281 36.992188 199.527344 C 37.875 208.992188 38.753906 218.234375 39.855469 227.699219 C 40.296875 230.78125 41.175781 233.863281 42.277344 236.722656 C 48.445312 251.691406 57.03125 264.234375 68.261719 274.800781 C 84.117188 289.328125 101.070312 301.652344 120.890625 307.816406 C 132.558594 311.335938 144.671875 312.4375 156.5625 315.078125 C 174.398438 319.039062 191.574219 315.738281 208.527344 309.136719 C 210.730469 308.253906 212.710938 307.375 214.914062 306.714844 C 214.914062 306.054688 214.914062 305.171875 214.914062 304.511719 C 211.613281 303.632812 208.308594 302.3125 205.007812 302.09375 Z M 281.414062 63.507812 C 265.121094 56.246094 248.605469 48.761719 232.089844 41.71875 C 211.832031 33.132812 190.691406 30.492188 169.332031 30.933594 C 150.835938 31.375 133 35.996094 115.164062 40.617188 C 97.109375 45.238281 80.371094 53.382812 63.859375 62.628906 C 56.8125 66.589844 50.425781 71.871094 45.582031 78.914062 C 41.175781 85.296875 36.773438 91.679688 32.589844 98.28125 C 31.046875 100.703125 30.609375 104.003906 29.066406 108.40625 C 31.269531 107.304688 32.148438 107.085938 32.589844 106.425781 C 42.277344 92.558594 55.710938 85.296875 69.363281 78.695312 C 84.117188 71.429688 99.96875 68.347656 115.605469 64.828125 C 122.429688 63.289062 129.699219 61.746094 136.082031 58.445312 C 158.324219 47.441406 181.445312 45.460938 205.445312 47.878906 C 227.464844 50.082031 248.824219 56.023438 269.304688 65.269531 C 275.03125 67.910156 278.332031 68.128906 285.378906 67.46875 C 283.835938 65.707031 282.957031 64.167969 281.414062 63.507812 Z M 325.234375 276.78125 C 313.5625 288.226562 300.132812 297.03125 286.257812 304.511719 C 276.789062 309.574219 266.660156 313.316406 256.972656 317.9375 C 244.640625 323.660156 231.871094 325.421875 218.660156 325.863281 C 211.613281 326.082031 204.566406 325.863281 197.519531 326.523438 C 188.050781 327.625 178.582031 329.382812 169.113281 330.925781 C 164.488281 331.585938 159.863281 332.464844 155.242188 334.007812 C 161.40625 337.746094 168.234375 337.746094 174.617188 337.96875 C 184.527344 338.410156 194.214844 337.527344 204.125 337.085938 C 227.027344 335.988281 249.707031 333.785156 271.945312 326.304688 C 297.929688 317.5 321.050781 303.632812 339.988281 281.183594 C 343.953125 276.339844 347.253906 270.398438 350.335938 264.675781 C 352.320312 260.933594 352.980469 256.53125 351.660156 250.808594 C 342.191406 260.273438 333.601562 268.417969 325.234375 276.78125 Z M 295.726562 276.5625 C 303.65625 272.378906 311.363281 267.976562 319.070312 263.355469 C 329.859375 256.972656 339.988281 249.488281 346.59375 237.164062 C 348.574219 233.421875 350.335938 229.460938 351.878906 225.5 C 352.320312 224.179688 351.878906 221.757812 351.21875 220.214844 C 348.355469 213.171875 345.273438 206.128906 342.410156 198.867188 C 341.308594 196.226562 339.988281 194.464844 337.347656 194.464844 C 334.261719 194.464844 333.824219 197.328125 332.941406 199.527344 C 328.097656 214.273438 321.269531 227.917969 313.34375 240.683594 C 306.738281 251.25 299.472656 261.375 290.441406 269.738281 C 286.480469 273.480469 282.515625 277.441406 278.773438 281.183594 C 285.378906 282.285156 290.664062 279.203125 295.726562 276.5625 Z M 186.507812 74.292969 C 203.023438 75.390625 219.320312 76.492188 235.832031 77.8125 C 239.578125 78.035156 243.539062 79.132812 247.285156 80.453125 C 265.339844 87.277344 282.957031 94.980469 298.371094 108.1875 C 300.792969 110.386719 303.875 111.929688 306.738281 113.46875 C 315.546875 118.53125 324.132812 123.59375 332.941406 128.65625 C 333.824219 129.316406 334.921875 129.757812 337.347656 131.078125 C 335.804688 128.214844 335.363281 126.675781 334.484375 125.574219 C 322.8125 111.046875 309.601562 98.941406 293.527344 90.800781 C 279.214844 83.757812 264.679688 78.253906 249.707031 72.972656 C 228.566406 65.269531 207.867188 66.589844 186.730469 69.890625 C 184.527344 70.332031 182.324219 70.550781 180.125 70.769531 C 180.125 71.652344 180.125 72.3125 179.902344 73.191406 C 182.324219 73.632812 184.308594 74.070312 186.507812 74.292969 Z M 32.808594 126.015625 C 48.003906 105.324219 67.601562 92.558594 89.621094 83.976562 C 97.328125 80.894531 104.59375 76.273438 112.082031 72.3125 C 112.960938 71.871094 113.621094 70.992188 114.285156 68.570312 C 111.863281 68.789062 109.4375 68.789062 107.238281 69.007812 C 92.703125 71.210938 79.492188 77.59375 66.5 84.636719 C 57.472656 89.480469 48.664062 95.421875 41.175781 103.125 C 35.890625 108.40625 31.488281 114.351562 29.507812 122.054688 C 29.066406 123.8125 29.066406 126.015625 28.847656 129.316406 C 30.828125 127.777344 31.929688 127.117188 32.808594 126.015625 Z M 38.535156 155.949219 C 48.445312 140.761719 58.574219 127.996094 70.90625 117.652344 C 83.015625 107.527344 95.785156 98.722656 109.4375 88.597656 C 82.355469 87.496094 39.195312 128.214844 38.535156 155.949219 Z M 142.6875 89.039062 C 160.964844 86.398438 179.460938 85.515625 197.519531 83.976562 C 197.960938 84.636719 197.738281 83.976562 197.519531 83.976562 C 185.847656 82.65625 174.398438 80.894531 162.726562 80.453125 C 149.734375 79.792969 136.742188 80.015625 124.414062 87.058594 C 115.605469 92.121094 106.796875 96.742188 97.988281 101.804688 C 94.90625 103.566406 92.261719 106.207031 89.402344 108.628906 C 89.621094 109.289062 90.0625 109.949219 90.28125 110.609375 C 107.238281 102.023438 123.972656 91.679688 142.6875 89.039062 Z M 145.113281 62.847656 C 134.980469 63.289062 125.734375 68.789062 117.367188 75.171875 C 116.707031 75.613281 116.265625 76.273438 115.824219 76.714844 C 115.605469 77.152344 115.382812 77.59375 115.164062 78.695312 C 141.148438 74.292969 166.910156 69.671875 192.675781 65.269531 C 192.453125 64.386719 192.453125 63.507812 192.234375 62.40625 C 176.601562 62.628906 160.746094 61.964844 145.113281 62.847656 Z M 344.832031 176.417969 C 347.914062 184.78125 351.21875 193.144531 354.519531 201.507812 C 355.183594 203.269531 356.503906 204.589844 358.484375 207.890625 C 359.367188 202.609375 360.027344 199.085938 360.46875 195.566406 C 360.6875 192.925781 360.246094 190.0625 360.90625 187.863281 C 363.328125 179.71875 359.585938 173.777344 355.402344 168.273438 C 352.761719 164.75 350.117188 161.230469 346.8125 156.609375 C 342.628906 164.3125 342.410156 170.253906 344.832031 176.417969 Z M 12.332031 193.363281 C 10.789062 202.167969 13.871094 213.171875 18.054688 219.554688 C 18.71875 215.152344 19.597656 211.851562 19.597656 208.332031 C 19.15625 197.546875 22.019531 187.640625 27.085938 178.839844 C 31.929688 170.472656 26.863281 163.871094 24.441406 156.609375 C 16.515625 167.394531 14.753906 180.597656 12.332031 193.363281 Z M 267.324219 301.871094 C 262.699219 299.449219 257.855469 299.671875 244.863281 304.292969 C 237.59375 306.933594 230.769531 310.894531 223.722656 314.199219 C 223.941406 315.078125 224.164062 315.957031 224.382812 316.839844 C 239.355469 314.859375 253.890625 311.335938 267.324219 301.871094 Z M 30.828125 140.320312 C 27.746094 146.042969 29.066406 151.105469 32.371094 157.929688 C 38.09375 141.421875 45.140625 127.777344 53.949219 115.230469 C 44.699219 121.832031 36.554688 129.757812 30.828125 140.320312 Z M 72.886719 305.394531 C 59.675781 293.730469 46.460938 282.0625 33.25 270.179688 C 42.5 287.566406 55.269531 299.890625 72.886719 305.394531 Z M 136.742188 320.800781 C 122.652344 316.179688 108.558594 311.335938 94.464844 306.714844 C 106.796875 317.71875 120.667969 323.882812 136.742188 320.800781 Z M 195.757812 56.023438 C 188.050781 50.960938 164.269531 52.722656 155.242188 58.003906 C 155.242188 58.664062 155.460938 59.105469 155.460938 59.765625 C 168.671875 58.445312 182.105469 57.34375 195.757812 56.023438 Z M 33.910156 254.773438 C 34.570312 250.148438 29.945312 239.144531 22.679688 227.257812 C 21.359375 236.0625 25.101562 244.867188 33.910156 254.773438 Z M 326.335938 139.21875 C 330.078125 146.042969 333.160156 151.546875 336.464844 157.046875 C 339.328125 148.683594 336.464844 144.0625 326.335938 139.21875 Z M 326.335938 139.21875 " fill-opacity="1" fill-rule="nonzero"/></g><g fill="#1e90ff" fill-opacity="1"><g transform="translate(82.140928, 248.182101)"><g><path d="M 101.820312 -126.53125 C 98.472656 -130.804688 86.582031 -128.386719 82.867188 -124.300781 C 75.804688 -116.3125 83.050781 -96.246094 83.609375 -75.25 C 70.046875 -79.152344 50.351562 -74.320312 31.585938 -72.460938 C 32.328125 -107.207031 44.777344 -134.707031 16.90625 -129.132812 C 0.742188 -125.785156 4.085938 -29.355469 6.132812 -14.492188 C 7.617188 -4.460938 8.917969 4.460938 24.339844 4.460938 C 41.0625 4.085938 28.425781 -32.144531 30.84375 -44.777344 C 43.476562 -50.351562 69.488281 -53.511719 84.539062 -52.394531 C 90.300781 -12.261719 81.007812 4.460938 98.472656 4.460938 C 104.046875 4.460938 108.507812 1.113281 109.808594 -4.085938 C 111.851562 -12.820312 111.292969 -114.640625 101.820312 -126.53125 Z M 101.820312 -126.53125 "/></g></g></g><g fill="#1e90ff" fill-opacity="1"><g transform="translate(197.517121, 248.182101)"><g><path d="M 96.617188 -20.253906 C 74.878906 -33.628906 38.644531 -22.667969 36.789062 -24.152344 C 35.300781 -25.269531 36.601562 -31.957031 36.789062 -40.132812 C 44.21875 -44.964844 78.59375 -44.21875 87.511719 -48.867188 C 90.671875 -50.539062 93.644531 -61.3125 87.324219 -63.730469 C 73.578125 -69.117188 52.765625 -72.277344 35.859375 -68.003906 C 32.515625 -121.328125 73.207031 -110.738281 86.953125 -95.316406 C 89 -88.253906 94.386719 -87.324219 98.101562 -91.226562 C 116.683594 -110.738281 67.074219 -157.1875 28.613281 -120.957031 C 25.453125 -120.769531 12.449219 -132.847656 5.945312 -124.113281 C 0 -116.3125 13.5625 -118.539062 7.988281 -42.917969 C 2.785156 27.683594 20.996094 1.671875 74.320312 -0.371094 C 107.949219 -1.671875 103.492188 -15.980469 96.617188 -20.253906 Z M 96.617188 -20.253906 "/></g></g></g></svg>