<svg xmlns="http://www.w3.org/2000/svg" xmlns:xlink="http://www.w3.org/1999/xlink" width="500" zoomAndPan="magnify" viewBox="0 0 375 374.999991" height="500" preserveAspectRatio="xMidYMid meet" version="1.0"><path fill="#ffffff" d="M 135.128906 0 L 32.972656 0 C 14.871094 0 0 14.871094 0 32.972656 L 0 135.128906 C 0 153.234375 14.871094 168.101562 32.972656 168.101562 L 135.128906 168.101562 C 153.234375 168.101562 168.101562 153.234375 168.101562 135.128906 L 168.101562 32.972656 C 168.101562 14.871094 153.234375 0 135.128906 0 Z M 135.128906 0 " fill-opacity="1" fill-rule="nonzero"/><path fill="#ffffff" d="M 342.027344 0 L 239.871094 0 C 221.765625 0 206.898438 14.871094 206.898438 32.972656 L 206.898438 135.128906 C 206.898438 153.234375 221.765625 168.101562 239.871094 168.101562 L 342.027344 168.101562 C 360.128906 168.101562 375 153.234375 375 135.128906 L 375 32.972656 C 375 14.871094 360.128906 0 342.027344 0 Z M 342.027344 0 " fill-opacity="1" fill-rule="nonzero"/><path fill="#ffffff" d="M 135.128906 206.898438 L 32.972656 206.898438 C 14.871094 206.898438 0 221.765625 0 239.871094 L 0 342.027344 C 0 360.128906 14.871094 375 32.972656 375 L 135.128906 375 C 153.234375 375 168.101562 360.128906 168.101562 342.027344 L 168.101562 239.871094 C 168.101562 221.765625 153.234375 206.898438 135.128906 206.898438 Z M 135.128906 206.898438 " fill-opacity="1" fill-rule="nonzero"/><path fill="#ffffff" d="M 342.027344 206.898438 L 239.871094 206.898438 C 221.765625 206.898438 206.898438 221.765625 206.898438 239.871094 L 206.898438 342.027344 C 206.898438 360.128906 221.765625 375 239.871094 375 L 342.027344 375 C 360.128906 375 375 360.128906 375 342.027344 L 375 239.871094 C 375 221.765625 360.128906 206.898438 342.027344 206.898438 Z M 342.027344 206.898438 " fill-opacity="1" fill-rule="nonzero"/></svg>